# xmcd CD database file
# Copyright (C) 1993-1998 Ti Kan
#
# Track frame offsets:
#	215
#	15012
#	36165
#	53215
#	72672
#	86527
#	104777
#	121560
#	139230
#	156467
#	173557
#	189940
#
# Disc length: 2856 seconds
#
# Revision: 1
# Processed by: cddbd v1.4b41PL1 Copyright (c) Steve Scherf et al.
# Submitted via: CDValet v3.31 - Copyright (c) 1997 Greg Leichner
#
DISCID=9a0b260c
DTITLE=Greg Trooper and The Flatirons - Everywhere
DYEAR=1900
DGENRE=
TTITLE0=So Far To Go
TTITLE1=Up to Me
TTITLE2=Blind Spot
TTITLE3=Ireland
TTITLE4=Every Single Day
TTITLE5=I Thought I Was Dreaming
TTITLE6=Biologically Blue
TTITLE7=I Can't Search For You Anymore
TTITLE8=Steal Away
TTITLE9=Wouldn't That Be Love
TTITLE10=Try Not to Cry
TTITLE11=Everywhere
EXTD=
EXTT0=
EXTT1=
EXTT2=
EXTT3=
EXTT4=
EXTT5=
EXTT6=
EXTT7=
EXTT8=
EXTT9=
EXTT10=
EXTT11=
PLAYORDER=
